<svg width="72" height="36" viewBox="0 0 72 36" fill="none" xmlns="http://www.w3.org/2000/svg">
    <path d="M49.4956 18.3241V27.8895H40.2627V16.627L48.053 7.83305V0.119019H57.2859V9.53013L49.4956 18.3241Z"
          fill="#E80076"/>
    <path d="M64.21 20.1755V27.8895H54.9771V18.4784L62.7673 9.68441V0.119019H72.0002V11.3815L64.21 20.1755Z"
          fill="#E80076"/>
    <path d="M0 27.8895V0H5.58244V10.8622C6.13114 10.1528 6.84684 9.59008 7.72953 9.17418C8.61222 8.75829 9.56649 8.55034 10.5923 8.55034C12.6678 8.55034 14.302 9.18642 15.4948 10.4586C16.7115 11.7307 17.3199 13.4677 17.3199 15.6695V21.7795V27.8895H11.7017V17.2475C11.7017 16.1955 11.4273 15.3515 10.8786 14.7154C10.3299 14.0549 9.59034 13.7246 8.65994 13.7246C7.72953 13.7246 6.97805 14.0549 6.40549 14.7154C5.85679 15.3759 5.58244 16.22 5.58244 17.2475V27.8895H0Z"
          fill="#FFFFFF"/>
    <path d="M18.2728 8.9907H24.3204L29.044 18.7887L33.7319 8.9907H39.6721L26.0739 35.5958H20.2767L26.1097 24.5868L18.2728 8.9907Z"
          fill="#FFFFFF"/>
</svg>
