<svg xmlns="http://www.w3.org/2000/svg" viewBox="0 0 24 24" stroke-width=".75">
    <path style="fill:none;opacity:.2" d="M0 0h24v24H0z"/>
    <path d="M12 1 1.5 5v3c0 12 9.9 15 10.5 15s10.5-3 10.5-15V5Z"
          style="fill:none;stroke-linecap:round;stroke-linejoin:round" class="strokeColorSwitch"/>
    <path d="M12.2 21.7h-.4c-1.8-.6-9-3.8-9-13.8V6.2a.5.5 0 0 1 .4-.5l8.6-3.3h.4l8.6 3.3a.5.5 0 0 1 .4.5v1.7c0 10-7.2 13.2-9 13.8Z"
          style="fill:rgba(50, 220, 171, 0.35)"/>
    <path style="fill:none;stroke-linecap:round;stroke-linejoin:round" d="m6.8 13.1 3.5 3.4 8-9" class="strokeColorSwitch"/>
</svg>
