<svg width="72" height="36" viewBox="0 0 72 36" fill="none" xmlns="http://www.w3.org/2000/svg">
<path d="M49.4834 18.3556V28H40.2456V16.6444L48.04 7.77778V0H57.2777V9.48889L49.4834 18.3556Z" fill="#E80076"/>
<path d="M64.2055 20.2222V28H54.9678V18.5111L62.7621 9.64444V0H71.9999V11.3556L64.2055 20.2222Z" fill="#E80076"/>
<path d="M6.38858 24.004C7.04947 24.004 7.57573 23.8806 7.96737 23.634C8.38349 23.3873 8.59154 23.042 8.59154 22.598C8.59154 22.2773 8.50587 22.0306 8.33453 21.858C8.16319 21.6606 7.80827 21.4386 7.26977 21.192L3.70832 19.712C2.45997 19.194 1.55431 18.528 0.991332 17.714C0.452831 16.9 0.18358 15.8886 0.18358 14.68C0.18358 13.6933 0.391637 12.8176 0.807752 12.053C1.22387 11.2883 1.76237 10.647 2.42326 10.129C3.10862 9.58631 3.87966 9.17931 4.73636 8.90798C5.59307 8.63664 6.47425 8.50098 7.37992 8.50098C8.33453 8.50098 9.27691 8.63664 10.207 8.90798C11.1372 9.17931 11.9817 9.56164 12.7405 10.055V15.124C11.8103 14.458 10.8802 13.94 9.95004 13.57C9.04437 13.2 8.19991 13.015 7.41663 13.015C6.14381 13.015 5.5074 13.459 5.5074 14.347C5.5074 14.6676 5.61755 14.939 5.83784 15.161C6.05814 15.3583 6.51097 15.605 7.19634 15.901L10.4641 17.307C11.7124 17.8003 12.6058 18.4416 13.1443 19.231C13.7073 20.0203 13.9888 21.0193 13.9888 22.228C13.9888 23.264 13.7685 24.1766 13.3279 24.966C12.8873 25.7306 12.2999 26.372 11.5655 26.89C10.8557 27.408 10.0479 27.7903 9.14228 28.037C8.23662 28.3083 7.31872 28.444 6.38858 28.444C5.18919 28.444 4.03876 28.296 2.93728 28C1.8358 27.704 0.856707 27.2723 0 26.705V21.488C0.832229 22.2526 1.82356 22.8693 2.974 23.338C4.12443 23.782 5.26263 24.004 6.38858 24.004Z" fill="#002A3A"/>
<path d="M23.0298 8.94498V19.786C23.0298 20.8466 23.2991 21.71 23.8376 22.376C24.4006 23.0173 25.1471 23.338 26.0773 23.338C27.0074 23.338 27.7539 23.005 28.3169 22.339C28.9044 21.673 29.1981 20.822 29.1981 19.786V8.94498H34.9625V28H29.1981V26.15C28.6351 26.8653 27.9008 27.4326 26.9951 27.852C26.0895 28.2466 25.1226 28.444 24.0946 28.444C21.9651 28.444 20.2884 27.8026 19.0645 26.52C17.8651 25.2126 17.2654 23.4736 17.2654 21.303V8.94498H23.0298Z" fill="#002A3A"/>
</svg>
