<svg width="124" height="124" viewBox="0 0 124 124" fill="none" xmlns="http://www.w3.org/2000/svg">
<rect x="11.5347" y="124" width="11.5349" height="11.5349" transform="rotate(180 11.5347 124)" fill="#32DCAB"/>
<rect x="11.5347" y="86.5114" width="11.5349" height="11.5349" transform="rotate(180 11.5347 86.5114)" fill="#32DCAB"/>
<rect x="11.5347" y="49.0232" width="11.5349" height="11.5349" transform="rotate(180 11.5347 49.0232)" fill="#32DCAB"/>
<rect x="11.5347" y="11.5349" width="11.5349" height="11.5349" transform="rotate(180 11.5347 11.5349)" fill="#32DCAB"/>
<rect x="86.5112" y="124" width="11.5349" height="11.5349" transform="rotate(180 86.5112 124)" fill="#32DCAB"/>
<rect x="86.5112" y="86.5114" width="11.5349" height="11.5349" transform="rotate(180 86.5112 86.5114)" fill="#32DCAB"/>
<rect x="123.999" y="124" width="11.5349" height="11.5349" transform="rotate(180 123.999 124)" fill="#32DCAB"/>
<rect x="49.022" y="124" width="11.5349" height="11.5349" transform="rotate(180 49.022 124)" fill="#32DCAB"/>
<rect x="49.022" y="86.5114" width="11.5349" height="11.5349" transform="rotate(180 49.022 86.5114)" fill="#32DCAB"/>
<rect x="49.022" y="49.0232" width="11.5349" height="11.5349" transform="rotate(180 49.022 49.0232)" fill="#32DCAB"/>
</svg>
