<svg width="72" height="36" viewBox="0 0 72 36" fill="none" xmlns="http://www.w3.org/2000/svg">
    <path d="M49.2043 18.3556V28H39.8521V16.6444L47.743 7.77778V0H57.0953V9.48889L49.2043 18.3556Z" fill="#32DCAB"/>
    <path d="M64.1086 20.2222V28H54.7563V18.5111L62.6473 9.64444V0H71.9996V11.3556L64.1086 20.2222Z" fill="#32DCAB"/>
    <path d="M0 8.94498H5.83587V11.609C6.45539 10.6223 7.27315 9.86998 8.28916 9.35198C9.32996 8.80931 11.4869 8.56264 12.7507 8.61198V14.421C10.8674 14.1743 8.40068 14.458 7.35989 15.272C6.34387 16.0613 5.83587 17.3193 5.83587 19.046V28H0V8.94498Z"
          fill="#FFFFFF"/>
    <path d="M25.3362 8.50098C26.8974 8.50098 28.2727 8.78464 29.4622 9.35198C30.6516 9.89464 31.6305 10.6716 32.3987 11.683C33.1917 12.6696 33.7616 13.8783 34.1086 15.309C34.4803 16.715 34.5918 18.2813 34.4431 20.008H20.95C21.2473 21.192 21.9164 22.1046 22.9572 22.746C24.0228 23.3873 25.3486 23.708 26.9345 23.708C28.0001 23.708 29.0781 23.5476 30.1684 23.227C31.2588 22.8816 32.2004 22.4253 32.9934 21.858V26.779C32.1261 27.3216 31.0977 27.7286 29.9082 28C28.7187 28.296 27.4797 28.444 26.1911 28.444C24.729 28.444 23.3537 28.2096 22.0651 27.741C20.7765 27.2723 19.649 26.6063 18.6825 25.743C17.7161 24.8796 16.9479 23.8436 16.3779 22.635C15.808 21.4016 15.523 20.0326 15.523 18.528C15.523 17.1713 15.7708 15.8886 16.2664 14.68C16.7868 13.4466 17.4807 12.3736 18.348 11.461C19.2401 10.5483 20.2809 9.83298 21.4704 9.31498C22.6598 8.77231 23.9485 8.50098 25.3362 8.50098ZM21.0987 16.345H29.0905C28.9666 15.4076 28.5577 14.6306 27.8638 14.014C27.1699 13.3973 26.3026 13.089 25.2618 13.089C24.2706 13.089 23.4033 13.3726 22.6598 13.94C21.9412 14.5073 21.4208 15.309 21.0987 16.345Z"
          fill="#FFFFFF"/>
</svg>
